<svg width="98" height="106" viewBox="0 0 98 106" fill="none" xmlns="http://www.w3.org/2000/svg">
<path d="M37.1484 43.6897C38.9081 46.8397 40.6678 50.1997 42.4274 53.3497C44.7736 49.9897 47.1199 46.4197 49.4661 43.0597C53.3764 43.0597 57.2868 43.0597 61.1971 43.0597" stroke="#073D37" stroke-width="3" stroke-miterlimit="10" stroke-linecap="round" stroke-linejoin="round"/>
<path d="M60.415 63.6396C62.1747 65.7396 63.9344 67.8396 65.4985 69.9396C67.2582 67.6296 69.0178 65.5296 70.582 63.2196C73.9058 63.2196 77.0341 63.2196 80.3579 63.2196" stroke="#073D37" stroke-width="3" stroke-miterlimit="10" stroke-linecap="round" stroke-linejoin="round"/>
<path d="M15.6414 64.6897C17.401 66.9997 19.1607 69.3097 20.9203 71.6197C22.68 69.0997 24.6352 66.7897 26.3948 64.2697C29.7186 64.2697 33.238 64.2697 36.5618 64.2697" stroke="#073D37" stroke-width="3" stroke-miterlimit="10" stroke-linecap="round" stroke-linejoin="round"/>
<path d="M50.2481 85.8997C39.2991 85.8997 28.3501 86.1097 17.4011 86.1097" stroke="#073D37" stroke-width="3" stroke-miterlimit="10" stroke-linecap="round" stroke-linejoin="round"/>
<path d="M31.6738 53.9796C36.3663 43.2696 41.2542 32.5596 45.9466 21.6396C47.1197 19.1196 50.4435 19.1196 51.6167 21.4296C56.3091 31.0896 61.197 40.7496 65.8895 50.6196" stroke="#073D37" stroke-width="3" stroke-miterlimit="10" stroke-linecap="round" stroke-linejoin="round"/>
<path d="M50.6392 85.8996C56.7002 72.4596 62.5658 58.8096 68.6268 45.3696C69.2134 43.8996 71.1685 43.8996 71.7551 45.3696L91.5024 85.8996H50.6392Z" stroke="#073D37" stroke-width="3" stroke-miterlimit="10" stroke-linecap="round" stroke-linejoin="round"/>
<path d="M6.25659 86.1096C12.1221 72.6696 17.9877 59.4396 24.0487 45.9996C24.8308 44.3196 26.9815 44.3196 27.7636 45.9996L47.3154 85.8996L6.25659 86.1096Z" stroke="#073D37" stroke-width="3" stroke-miterlimit="10" stroke-linecap="round" stroke-linejoin="round"/>
</svg>
