<svg width="218" height="40" viewBox="0 0 218 40" fill="none" xmlns="http://www.w3.org/2000/svg">
<path d="M42.516 34V8.1H59.425V11.911H47.252V19.015H58.315V22.715H47.252V30.189H59.425V34H42.516ZM70.9366 34.444C69.21 34.444 67.6683 34.0247 66.3116 33.186C64.955 32.3473 63.882 31.2003 63.0926 29.745C62.3033 28.2897 61.9086 26.637 61.9086 24.787C61.9086 22.937 62.3033 21.2967 63.0926 19.866C63.882 18.4107 64.955 17.276 66.3116 16.462C67.6683 15.6233 69.21 15.204 70.9366 15.204C72.318 15.204 73.5266 15.463 74.5626 15.981C75.5986 16.499 76.4373 17.2267 77.0786 18.164V7.36H81.8146V34H77.5966L77.0786 31.373C76.4866 32.187 75.6973 32.9023 74.7106 33.519C73.7486 34.1357 72.4906 34.444 70.9366 34.444ZM71.9356 30.3C73.465 30.3 74.7106 29.7943 75.6726 28.783C76.6593 27.747 77.1526 26.4273 77.1526 24.824C77.1526 23.2207 76.6593 21.9133 75.6726 20.902C74.7106 19.866 73.465 19.348 71.9356 19.348C70.431 19.348 69.1853 19.8537 68.1986 20.865C67.212 21.8763 66.7186 23.1837 66.7186 24.787C66.7186 26.3903 67.212 27.71 68.1986 28.746C69.1853 29.782 70.431 30.3 71.9356 30.3ZM94.2593 34.444C92.4093 34.444 90.769 34.0493 89.3383 33.26C87.9077 32.4707 86.7853 31.3607 85.9713 29.93C85.1573 28.4993 84.7503 26.8467 84.7503 24.972C84.7503 23.0727 85.145 21.383 85.9343 19.903C86.7483 18.423 87.8583 17.276 89.2643 16.462C90.695 15.6233 92.3723 15.204 94.2963 15.204C96.097 15.204 97.688 15.5987 99.0693 16.388C100.451 17.1773 101.524 18.2627 102.288 19.644C103.078 21.0007 103.472 22.5177 103.472 24.195C103.472 24.4663 103.46 24.75 103.435 25.046C103.435 25.342 103.423 25.6503 103.398 25.971H89.4493C89.548 27.4017 90.0413 28.524 90.9293 29.338C91.842 30.152 92.9397 30.559 94.2223 30.559C95.1843 30.559 95.986 30.3493 96.6273 29.93C97.2933 29.486 97.7867 28.9187 98.1073 28.228H102.917C102.572 29.3873 101.992 30.448 101.178 31.41C100.389 32.3473 99.4023 33.0873 98.2183 33.63C97.059 34.1727 95.7393 34.444 94.2593 34.444ZM94.2963 19.052C93.137 19.052 92.1133 19.385 91.2253 20.051C90.3373 20.6923 89.77 21.679 89.5233 23.011H98.6623C98.5883 21.8023 98.1443 20.8403 97.3303 20.125C96.5163 19.4097 95.505 19.052 94.2963 19.052ZM106.161 34V15.648H110.342L110.712 18.756C111.279 17.6707 112.093 16.8073 113.154 16.166C114.239 15.5247 115.509 15.204 116.965 15.204C119.234 15.204 120.998 15.9193 122.256 17.35C123.514 18.7807 124.143 20.8773 124.143 23.64V34H119.407V24.084C119.407 22.5053 119.086 21.2967 118.445 20.458C117.803 19.6193 116.804 19.2 115.448 19.2C114.116 19.2 113.018 19.6687 112.155 20.606C111.316 21.5433 110.897 22.8507 110.897 24.528V34H106.161Z" fill="#17C3B2"/>
<path d="M133.777 34V10.653H126.044V8.1H144.618V10.653H136.885V34H133.777ZM144.838 34V15.648H147.65L147.909 19.163C148.476 17.9543 149.339 16.9923 150.499 16.277C151.658 15.5617 153.089 15.204 154.791 15.204V18.46H153.94C152.854 18.46 151.855 18.6573 150.943 19.052C150.03 19.422 149.302 20.0633 148.76 20.976C148.217 21.8887 147.946 23.1467 147.946 24.75V34H144.838ZM163.089 34.444C161.56 34.444 160.29 34.185 159.278 33.667C158.267 33.149 157.515 32.4583 157.021 31.595C156.528 30.7317 156.281 29.7943 156.281 28.783C156.281 26.9083 156.997 25.4653 158.427 24.454C159.858 23.4427 161.807 22.937 164.273 22.937H169.231V22.715C169.231 21.1117 168.812 19.903 167.973 19.089C167.135 18.2503 166.012 17.831 164.606 17.831C163.398 17.831 162.349 18.1393 161.461 18.756C160.598 19.348 160.055 20.2237 159.833 21.383H156.651C156.775 20.051 157.219 18.9287 157.983 18.016C158.773 17.1033 159.747 16.4127 160.906 15.944C162.066 15.4507 163.299 15.204 164.606 15.204C167.172 15.204 169.096 15.8947 170.378 17.276C171.686 18.6327 172.339 20.4457 172.339 22.715V34H169.564L169.379 30.707C168.861 31.743 168.097 32.631 167.085 33.371C166.099 34.0863 164.767 34.444 163.089 34.444ZM163.57 31.817C164.754 31.817 165.766 31.5087 166.604 30.892C167.468 30.2753 168.121 29.4737 168.565 28.487C169.009 27.5003 169.231 26.4643 169.231 25.379V25.342H164.532C162.707 25.342 161.412 25.6627 160.647 26.304C159.907 26.9207 159.537 27.6977 159.537 28.635C159.537 29.597 159.883 30.374 160.573 30.966C161.289 31.5333 162.288 31.817 163.57 31.817ZM180.311 34L173.355 15.648H176.611L182.124 31.003L187.674 15.648H190.856L183.9 34H180.311ZM200.332 34.444C198.58 34.444 197.026 34.0493 195.67 33.26C194.313 32.446 193.24 31.3237 192.451 29.893C191.686 28.4623 191.304 26.7727 191.304 24.824C191.304 22.9 191.686 21.2227 192.451 19.792C193.215 18.3367 194.276 17.2143 195.633 16.425C197.014 15.611 198.605 15.204 200.406 15.204C202.182 15.204 203.711 15.611 204.994 16.425C206.301 17.2143 207.3 18.2627 207.991 19.57C208.681 20.8773 209.027 22.2833 209.027 23.788C209.027 24.0593 209.014 24.3307 208.99 24.602C208.99 24.8733 208.99 25.1817 208.99 25.527H194.375C194.449 26.933 194.769 28.1047 195.337 29.042C195.929 29.9547 196.656 30.6453 197.52 31.114C198.408 31.5827 199.345 31.817 200.332 31.817C201.614 31.817 202.687 31.521 203.551 30.929C204.414 30.337 205.043 29.5353 205.438 28.524H208.509C208.015 30.226 207.066 31.6443 205.66 32.779C204.278 33.889 202.502 34.444 200.332 34.444ZM200.332 17.831C198.852 17.831 197.532 18.2873 196.373 19.2C195.238 20.088 194.584 21.3953 194.412 23.122H205.956C205.882 21.4693 205.314 20.1743 204.254 19.237C203.193 18.2997 201.886 17.831 200.332 17.831ZM211.851 34V7.36H214.959V34H211.851Z" fill="white"/>
<path d="M25.5376 7.54051C26.358 7.54051 27.1448 7.15752 27.7249 6.47577C28.305 5.79403 28.6309 4.86939 28.6309 3.90527C28.6309 2.94114 28.305 2.0165 27.7249 1.33476C27.1448 0.653018 26.358 0.27002 25.5376 0.27002C24.7172 0.27002 23.9305 0.653018 23.3503 1.33476C22.7702 2.0165 22.4443 2.94114 22.4443 3.90527C22.4443 4.86939 22.7702 5.79403 23.3503 6.47577C23.9305 7.15752 24.7172 7.54051 25.5376 7.54051ZM20.105 15.4547C20.1695 15.4245 20.2275 15.3942 20.2919 15.3639L19.2028 20.173C18.8419 21.771 19.1964 23.475 20.1501 24.6943L24.7063 30.5335L26.1241 37.2056C26.4012 38.5007 27.5225 39.2959 28.6245 38.9703C29.7265 38.6446 30.4031 37.3268 30.126 36.0318L28.6438 29.0566C28.5214 28.4659 28.27 27.9282 27.9221 27.4814L24.7321 23.3917L25.9759 18.4311L26.5945 20.173C26.8781 20.9758 27.4001 21.6347 28.0638 22.0285L29.7845 23.0358C30.8027 23.6341 32.04 23.1494 32.5491 21.9528C33.0582 20.7561 32.6458 19.3021 31.6276 18.7038L30.242 17.8934L29.256 15.1064C28.1476 11.9937 25.557 9.96401 22.6828 9.96401C21.2135 9.96401 19.7635 10.3275 18.4231 11.0243L17.9075 11.2894C15.7873 12.3951 14.1633 14.5005 13.4351 17.083L13.2676 17.6738C12.9067 18.9461 13.4931 20.3169 14.5693 20.741C15.6455 21.1651 16.8184 20.4759 17.1793 19.2112L17.3468 18.6204C17.7142 17.3254 18.5262 16.2803 19.583 15.7274L20.0986 15.4623L20.105 15.4547ZM18.1717 25.6865L16.5606 30.4123L12.7327 34.9109C11.9271 35.8576 11.9271 37.395 12.7327 38.3417C13.5382 39.2883 14.8464 39.2883 15.652 38.3417L19.6282 33.6689C19.9246 33.3205 20.1566 32.9039 20.3113 32.4495L21.2457 29.7079L18.6228 26.3453C18.4617 26.1409 18.3135 25.9212 18.1717 25.694V25.6865ZM14.1955 21.0288C13.6993 20.6956 13.0742 20.8925 12.7842 21.4756L10.722 25.6713L7.2163 23.2933C6.23031 22.6268 4.96721 23.0206 4.40011 24.1793L0.275714 32.5783C-0.291391 33.737 0.0437165 35.2214 1.0297 35.8879L4.59988 38.3114C5.58587 38.9778 6.84897 38.584 7.41607 37.4253L11.5405 29.0263C11.6371 28.8294 11.708 28.6325 11.7531 28.4205L14.5758 22.6874C14.8593 22.1042 14.6918 21.3696 14.1955 21.0288Z" fill="#17C3B2"/>
</svg>
